<?xml version="1.0" encoding="UTF-8"?>
<!DOCTYPE svg PUBLIC "-//W3C//DTD SVG 1.1//EN" "http://www.w3.org/Graphics/SVG/1.1/DTD/svg11.dtd">
<svg xmlns="http://www.w3.org/2000/svg" version="1.1" width="901px" height="333px" style="shape-rendering:geometricPrecision; text-rendering:geometricPrecision; image-rendering:optimizeQuality; fill-rule:evenodd; clip-rule:evenodd" xmlns:xlink="http://www.w3.org/1999/xlink">
<g><path style="opacity:1" fill="#010004" d="M -0.5,-0.5 C 46.1667,-0.5 92.8333,-0.5 139.5,-0.5C 113.235,8.9186 92.7345,25.5853 78,49.5C 70.0601,65.7127 62.3935,82.046 55,98.5C 46.4025,123.533 46.4025,148.533 55,173.5C 64.5216,195.027 80.6883,208.527 103.5,214C 179.481,215.303 255.481,215.969 331.5,216C 332.576,217.726 332.743,219.559 332,221.5C 330,225.5 328,229.5 326,233.5C 323.531,235.652 320.698,237.152 317.5,238C 230.456,238.01 143.456,238.677 56.5,240C 46.2904,243.87 38.1238,250.37 32,259.5C 21.3918,282.379 10.5585,305.046 -0.5,327.5C -0.5,218.167 -0.5,108.833 -0.5,-0.5 Z"/></g>
<g><path style="opacity:1" fill="#1700de" d="M 139.5,-0.5 C 377.5,-0.5 615.5,-0.5 853.5,-0.5C 877.156,9.15547 892.823,26.1555 900.5,50.5C 900.5,67.5 900.5,84.5 900.5,101.5C 892.138,125.895 881.305,149.228 868,171.5C 852.662,193.176 832.162,207.343 806.5,214C 803.167,214.333 799.833,214.667 796.5,215C 722.833,215.333 649.167,215.667 575.5,216C 560.477,247.397 545.644,278.897 531,310.5C 525.513,320.492 517.679,327.825 507.5,332.5C 476.167,332.5 444.833,332.5 413.5,332.5C 446.038,262.064 478.872,191.73 512,121.5C 513.167,120.333 514.333,119.167 515.5,118C 604.833,117.667 694.167,117.333 783.5,117C 785.32,116.8 786.653,115.966 787.5,114.5C 788.833,114.5 789.5,113.833 789.5,112.5C 791.674,109.485 793.341,106.151 794.5,102.5C 795.152,101.551 795.486,100.385 795.5,99C 795.392,97.3189 794.725,96.1522 793.5,95.5C 586,94.3337 378.334,94.1671 170.5,95C 166.554,95.533 163.388,97.3663 161,100.5C 159.333,104.167 157.667,107.833 156,111.5C 155.257,113.441 155.424,115.274 156.5,117C 232.519,117.031 308.519,117.697 384.5,119C 408.465,124.963 424.965,139.463 434,162.5C 441.77,187.365 441.103,212.031 432,236.5C 425.273,251.62 418.273,266.62 411,281.5C 396.801,305.208 376.968,322.208 351.5,332.5C 234.167,332.5 116.833,332.5 -0.5,332.5C -0.5,330.833 -0.5,329.167 -0.5,327.5C 10.5585,305.046 21.3918,282.379 32,259.5C 38.1238,250.37 46.2904,243.87 56.5,240C 143.456,238.677 230.456,238.01 317.5,238C 320.698,237.152 323.531,235.652 326,233.5C 328,229.5 330,225.5 332,221.5C 332.743,219.559 332.576,217.726 331.5,216C 255.481,215.969 179.481,215.303 103.5,214C 80.6883,208.527 64.5216,195.027 55,173.5C 46.4025,148.533 46.4025,123.533 55,98.5C 62.3935,82.046 70.0601,65.7127 78,49.5C 92.7345,25.5853 113.235,8.9186 139.5,-0.5 Z"/></g>
<g><path style="opacity:1" fill="#030009" d="M 853.5,-0.5 C 869.167,-0.5 884.833,-0.5 900.5,-0.5C 900.5,16.5 900.5,33.5 900.5,50.5C 892.823,26.1555 877.156,9.15547 853.5,-0.5 Z"/></g>
<g><path style="opacity:1" fill="#030008" d="M 793.5,95.5 C 794.369,97.717 794.702,100.05 794.5,102.5C 793.341,106.151 791.674,109.485 789.5,112.5C 788.5,112.833 787.833,113.5 787.5,114.5C 786.653,115.966 785.32,116.8 783.5,117C 694.167,117.333 604.833,117.667 515.5,118C 514.333,119.167 513.167,120.333 512,121.5C 478.872,191.73 446.038,262.064 413.5,332.5C 392.833,332.5 372.167,332.5 351.5,332.5C 376.968,322.208 396.801,305.208 411,281.5C 418.273,266.62 425.273,251.62 432,236.5C 441.103,212.031 441.77,187.365 434,162.5C 424.965,139.463 408.465,124.963 384.5,119C 308.519,117.697 232.519,117.031 156.5,117C 155.424,115.274 155.257,113.441 156,111.5C 157.667,107.833 159.333,104.167 161,100.5C 163.388,97.3663 166.554,95.533 170.5,95C 378.334,94.1671 586,94.3337 793.5,95.5 Z"/></g>
<g><path style="opacity:1" fill="#08004d" d="M 793.5,95.5 C 794.725,96.1522 795.392,97.3189 795.5,99C 795.486,100.385 795.152,101.551 794.5,102.5C 794.702,100.05 794.369,97.717 793.5,95.5 Z"/></g>
<g><path style="opacity:1" fill="#000001" d="M 900.5,101.5 C 900.5,178.5 900.5,255.5 900.5,332.5C 769.5,332.5 638.5,332.5 507.5,332.5C 517.679,327.825 525.513,320.492 531,310.5C 545.644,278.897 560.477,247.397 575.5,216C 649.167,215.667 722.833,215.333 796.5,215C 799.833,214.667 803.167,214.333 806.5,214C 832.162,207.343 852.662,193.176 868,171.5C 881.305,149.228 892.138,125.895 900.5,101.5 Z"/></g>
<g><path style="opacity:1" fill="#08004d" d="M 789.5,112.5 C 789.5,113.833 788.833,114.5 787.5,114.5C 787.833,113.5 788.5,112.833 789.5,112.5 Z"/></g>
</svg>
